<svg width="138" height="23" viewBox="0 0 138 23" fill="none" xmlns="http://www.w3.org/2000/svg">
<path d="M0 12.3019V2.07373H21.666V15.3499H14.7768V16.5283H21.6826V21.8859H0V16.5283H6.90582V15.3499H3.21162C2.19655 15.3499 1.39781 15.0828 0.832027 14.5487C0.282889 14.0145 0 13.276 0 12.3019ZM7.78777 7.82414L7.50488 8.54686C8.0041 8.68827 8.5366 8.81396 9.11902 8.92394C9.70143 9.03392 10.2839 9.11248 10.8829 9.15961C11.482 9.20675 12.0644 9.25388 12.6468 9.28531C13.2292 9.31673 13.7617 9.33244 14.2277 9.33244V8.60971C13.2625 8.60971 12.1809 8.54686 11.016 8.40546C9.83456 8.26406 8.76956 8.07552 7.78777 7.82414Z" fill="white"/>
<path d="M22.6975 9.64667V2.07373H44.3635V7.06998H30.3855V7.69844H44.3635V12.6947H25.9092C24.8941 12.6947 24.0954 12.4276 23.5296 11.8934C22.9638 11.3592 22.6975 10.6208 22.6975 9.64667ZM37.4577 21.8859H29.5867V18.4608H22.6809V13.3389H44.3469V18.4608H37.4411V21.8859H37.4577Z" fill="white"/>
<path d="M45.3787 16.4969V2.07373H58.1752V7.96554C57.7925 8.05981 57.3598 8.13837 56.8773 8.20121C56.3781 8.26406 55.8788 8.31119 55.3463 8.35833C54.8138 8.40546 54.2813 8.42117 53.7489 8.43688C53.2164 8.4526 52.7171 8.46831 52.2512 8.46831V15.4599C52.6506 15.4599 53.1498 15.4442 53.7655 15.4285C54.3812 15.4128 55.0135 15.3657 55.6792 15.3028C56.3448 15.2242 56.9938 15.13 57.6095 14.9886C58.2252 14.8472 58.741 14.6743 59.157 14.4387V2.07373H66.0296V8.37404H67.9765V14.0616H66.0296V21.8859H59.157V20.7233C58.8242 20.8647 58.3916 21.0061 57.909 21.1475C57.4098 21.2889 56.9106 21.3989 56.3781 21.5088C55.8456 21.6188 55.3297 21.6974 54.8138 21.7602C54.298 21.8231 53.8653 21.8545 53.4826 21.8545H51.3693C50.1545 21.8545 49.1727 21.7445 48.3906 21.5246C47.6085 21.3046 47.0094 20.9747 46.5601 20.519C46.1108 20.0634 45.8113 19.5135 45.6449 18.8379C45.4619 18.1937 45.3787 17.4081 45.3787 16.4969Z" fill="white"/>
<path d="M76.5465 11.9718C75.1486 11.9718 73.9672 11.909 73.002 11.7675C72.0369 11.6261 71.2381 11.3905 70.6391 11.0605C70.04 10.7306 69.5907 10.2907 69.3245 9.74077C69.0582 9.19086 68.9084 8.51527 68.9084 7.68256V6.40993C69.7238 6.44135 70.4727 6.44135 71.1716 6.42564C71.8538 6.39422 72.5028 6.36279 73.1185 6.29995C73.7176 6.2371 74.3 6.14283 74.8491 6.01714C75.3983 5.89145 75.9474 5.75005 76.4965 5.57722V4.85449C75.9474 4.99589 75.3983 5.12159 74.8491 5.24728C74.3 5.35726 73.7176 5.45153 73.1185 5.53009C72.5194 5.60864 71.8705 5.65578 71.1716 5.70291C70.4893 5.75005 69.7238 5.75005 68.9084 5.71862V2.10498H90.5744V6.55133C89.992 6.67702 89.4262 6.80272 88.8771 6.89699C88.328 7.00697 87.7455 7.08552 87.1631 7.16408C86.5807 7.24264 85.965 7.28977 85.316 7.33691C84.667 7.38404 83.9681 7.39975 83.2193 7.39975V8.12248C83.9681 8.12248 84.667 8.10677 85.316 8.05964C85.965 8.0125 86.5807 7.96537 87.1631 7.88681C87.7455 7.80825 88.328 7.72969 88.8771 7.61971C89.4262 7.50973 89.992 7.39975 90.5744 7.27406V11.2805C88.7606 11.579 86.7138 11.7833 84.4174 11.8775C82.121 11.9247 79.4918 11.9718 76.5465 11.9718ZM68.9084 16.4339V12.4274H90.5744V16.4339H68.9084ZM69.0416 16.9366H76.3967C76.3135 17.3294 76.5132 17.6279 76.9958 17.8479C77.4783 18.0679 78.3436 18.1935 79.5917 18.2093C80.6067 18.225 81.5885 18.225 82.5204 18.1778C83.4523 18.1464 84.3509 18.0836 85.2495 18.005C86.1314 17.9265 87.0134 17.8165 87.8953 17.6751C88.7773 17.5337 89.6758 17.3608 90.5911 17.1252V21.0845C89.7424 21.2887 88.8937 21.4772 88.0617 21.6187C87.2297 21.7601 86.3644 21.87 85.4658 21.9643C84.5672 22.0429 83.6353 22.1057 82.6868 22.1528C81.7217 22.2 80.6899 22.2157 79.6083 22.2157C77.5282 22.2157 75.781 22.1214 74.3665 21.9172C72.9521 21.7129 71.8372 21.3987 71.0052 20.9745C70.1731 20.5503 69.6073 20.0004 69.3078 19.3405C69.0083 18.6806 68.9084 17.8636 69.0416 16.9366Z" fill="white"/>
<path d="M105.551 6.48884H92.438V2.56097H94.152C94.2019 2.74951 94.3184 2.95376 94.4848 3.17372C94.6512 3.39368 94.8675 3.59793 95.1171 3.77076C95.3667 3.9593 95.633 4.11641 95.9159 4.22639C96.1988 4.33637 96.465 4.41493 96.7146 4.43064L97.0474 3.94358C96.3319 3.8336 95.7661 3.58222 95.3334 3.20514C94.9008 2.82807 94.7011 2.43528 94.7011 2.01107C94.7011 0.895555 95.9824 0 97.1639 0H100.592C102.073 0 103.288 1.13123 103.288 2.54526H105.567V6.48884H105.551ZM92.438 10.8881C92.438 10.291 92.5378 9.75683 92.7542 9.26978C92.9705 8.78272 93.3366 8.37422 93.8358 8.02857C94.3517 7.68292 95.0339 7.41582 95.8826 7.22728C96.7312 7.03875 97.7962 6.94448 99.0776 6.94448C100.359 6.94448 101.424 7.03875 102.273 7.22728C103.121 7.41582 103.803 7.68292 104.336 8.02857C104.852 8.37422 105.218 8.78272 105.434 9.26978C105.651 9.75683 105.75 10.291 105.75 10.8881C105.75 11.4694 105.651 11.9879 105.434 12.4749C105.218 12.9463 104.852 13.3548 104.336 13.7004C103.82 14.0461 103.138 14.3132 102.273 14.5017C101.424 14.6902 100.359 14.7845 99.0776 14.7845C97.7962 14.7845 96.7312 14.6902 95.8826 14.5017C95.0339 14.3132 94.3517 14.0461 93.8358 13.7004C93.3199 13.3705 92.9705 12.9463 92.7542 12.4749C92.5545 11.9879 92.438 11.4537 92.438 10.8881ZM92.854 15.2716H100.259C100.259 15.9 100.592 16.4342 101.257 16.8584C101.923 17.2983 102.922 17.534 104.253 17.5812C105.867 17.6283 107.431 17.5812 108.929 17.4555C110.426 17.3141 111.824 17.0155 113.089 16.5285V21.132C112.34 21.3205 111.608 21.4933 110.909 21.619C110.21 21.7604 109.495 21.8704 108.746 21.949C107.997 22.0275 107.215 22.1061 106.399 22.1375C105.567 22.1846 104.652 22.2003 103.62 22.2003C101.723 22.2003 100.059 22.1061 98.6116 21.9175C97.1639 21.729 95.9824 21.3676 95.0506 20.8491C94.1187 20.3307 93.4697 19.6236 93.087 18.7281C92.7209 17.8483 92.6377 16.6856 92.854 15.2716ZM96.5648 9.78826L96.0989 10.4324C96.9476 10.8095 97.8628 11.0766 98.8612 11.2494C99.843 11.4223 100.825 11.5165 101.807 11.5165V10.7938C100.841 10.7938 99.9096 10.6995 99.0276 10.511C98.1457 10.3224 97.3303 10.0868 96.5648 9.78826ZM106.216 16.8427V2.07392H113.089V6.03321H115.036V11.7208H113.089V15.7272C112.64 15.9 112.124 16.0571 111.541 16.2143C110.959 16.3557 110.343 16.4814 109.711 16.5913C109.079 16.7013 108.463 16.7799 107.864 16.827C107.265 16.8584 106.716 16.8741 106.216 16.8427Z" fill="#FFF98F"/>
<path d="M116.085 9.99232C116.501 9.99232 116.966 9.99232 117.482 9.97661C118.015 9.9609 118.547 9.94519 119.113 9.89805C119.662 9.85092 120.195 9.80378 120.711 9.74094C121.226 9.67809 121.659 9.58382 122.009 9.47384V8.75111C121.676 8.84538 121.243 8.92394 120.727 8.98679C120.211 9.04963 119.679 9.09677 119.113 9.1439C118.547 9.19104 117.998 9.22246 117.449 9.23817C116.9 9.26959 116.451 9.26959 116.068 9.26959V6.52008C116.417 6.52008 116.867 6.50437 117.416 6.48866C117.948 6.47295 118.497 6.44152 119.063 6.4101C119.629 6.37868 120.161 6.33154 120.694 6.28441C121.21 6.23728 121.659 6.17443 122.009 6.09587V5.37314C121.659 5.43599 121.21 5.49884 120.694 5.54597C120.178 5.5931 119.646 5.64024 119.08 5.67166C118.531 5.7188 117.982 5.73451 117.449 5.75022C116.917 5.76593 116.451 5.78164 116.085 5.78164V2.07373H129.397V4.58757H130.362V2.07373H137.75V13.2132H130.362V10.2751H127.45C126.485 11.3906 125.07 12.2234 123.24 12.7733C121.409 13.3232 119.013 13.5431 116.068 13.4331V9.99232H116.085ZM116.085 16.8582C117.299 16.7954 118.314 16.7011 119.163 16.5754C120.012 16.4497 120.694 16.2769 121.21 16.057C121.726 15.837 122.108 15.5856 122.341 15.2871C122.574 14.9886 122.707 14.6272 122.707 14.2187V13.7631H131.344V14.2187C131.344 14.6429 131.46 14.9886 131.693 15.2871C131.926 15.5856 132.309 15.837 132.842 16.057C133.374 16.2769 134.056 16.4497 134.905 16.5754C135.754 16.7011 136.785 16.7954 138 16.8582V21.8545C136.353 21.8545 134.905 21.8231 133.69 21.7445C132.475 21.666 131.377 21.5403 130.379 21.336C129.397 21.1318 128.465 20.849 127.6 20.4719C126.734 20.0948 125.819 19.6235 124.871 19.0421L123.972 19.4978C124.255 19.702 124.588 19.9063 124.971 20.0791C125.337 20.2519 125.753 20.4248 126.169 20.6133C125.453 20.8018 124.738 20.9904 124.005 21.1475C123.273 21.3046 122.508 21.446 121.709 21.556C120.894 21.666 120.028 21.7445 119.113 21.7917C118.198 21.8388 117.183 21.8702 116.068 21.8702V16.8582H116.085Z" fill="white"/>
</svg>
