<svg width="283" height="74" viewBox="0 0 283 74" fill="none" xmlns="http://www.w3.org/2000/svg">
<path d="M141.5 0C63.3381 0 0 16.6049 0 37C0 57.3951 63.3381 74 141.5 74C219.662 74 283 57.3951 283 37C283 16.6049 219.662 0 141.5 0ZM39.1708 37.9024H33.1514V41.2415H30.7257V29.8707H39.1708C41.7762 29.8707 44.0222 30.8634 44.0222 33.8415C44.0222 36.8195 41.7762 37.9024 39.1708 37.9024ZM52.0181 34.8341C50.6705 34.6537 48.694 34.9244 47.7956 35.8268V41.2415H45.3698V32.8488L47.7057 32.578L47.7956 33.8415C49.1432 32.6683 50.6705 32.4878 52.1079 32.4878L52.0181 34.8341ZM56.2406 41.1512H53.8149V32.7585L56.2406 32.4878V41.1512ZM56.2406 31.6756H53.8149V29.7805H56.2406V31.6756ZM69.5371 41.1512H67.1114V36.9098C67.1114 35.6463 66.5724 34.7439 64.0568 34.7439C62.7991 34.7439 61.8108 35.0146 60.6429 35.2854V41.2415H58.2171V32.8488L60.553 32.578L60.6429 33.2098C61.8108 32.7585 62.799 32.3976 64.3263 32.3976C68.0997 32.3976 69.5371 34.2927 69.5371 36.8195V41.1512V41.1512ZM76.4549 34.7439H74.0292V38.4439C74.0292 39.2561 74.3886 39.4366 75.1073 39.4366C75.4667 39.4366 75.9159 39.3463 76.4549 39.3463V41.2415C75.6463 41.422 75.0175 41.5122 74.3886 41.5122C72.5917 41.5122 71.6035 40.7 71.6035 38.5341V34.8341H70.4356V32.8488H71.6035V30.7732L74.0292 30.5024V32.8488H76.4549V34.7439V34.7439ZM80.4978 41.1512H78.0721V32.7585L80.4978 32.4878V41.1512ZM80.4978 31.6756H78.0721V29.7805H80.4978V31.6756ZM93.7044 41.1512H91.2787V36.9098C91.2787 35.6463 90.7397 34.7439 88.2241 34.7439C86.9663 34.7439 85.9781 35.0146 84.8102 35.2854V41.2415H82.3844V32.8488L84.7203 32.578L84.8102 33.2098C85.9781 32.7585 86.9663 32.3976 88.4937 32.3976C92.267 32.3976 93.7044 34.2927 93.7044 36.8195V41.1512V41.1512ZM105.833 35.6463C105.833 37.8122 103.587 38.6244 100.622 38.6244C99.8137 38.6244 99.0051 38.5341 98.2864 38.4439C97.927 38.7146 97.3879 39.4366 97.5676 39.978C98.6457 39.7073 100.802 39.1659 102.689 39.1659C104.665 39.1659 106.462 39.7073 106.462 41.422C106.462 44.1293 102.239 44.3098 100.532 44.3098C97.2981 44.3098 95.4114 43.8585 94.7825 43.5878L95.2317 41.5122C95.5911 41.6024 97.7473 42.0537 101.071 42.0537C102.509 42.0537 103.946 41.9634 103.946 41.5122C103.946 41.061 102.689 40.9707 101.161 40.9707C99.8137 40.9707 98.1965 41.061 97.1184 41.1512C96.4895 41.061 95.681 40.6098 95.681 39.7073C95.7708 39.1659 96.22 38.5341 97.2083 38.0829C96.1302 37.6317 95.5013 36.8195 95.5013 35.6463C95.5013 33.4805 97.8371 32.3976 100.712 32.3976C101.341 32.3976 101.97 32.4878 102.509 32.578C103.228 32.3073 104.935 31.9463 106.552 31.9463L106.642 33.3902H104.575C105.294 33.9317 105.833 34.7439 105.833 35.6463ZM110.325 41.1512H108.169V38.8049H110.325V41.1512ZM115.356 41.1512H113.2V38.8049H115.356V41.1512ZM120.477 41.1512H118.321V38.8049H120.477V41.1512ZM137.996 37.9024H132.067V41.2415H129.641V29.8707H138.086C140.691 29.8707 142.937 30.8634 142.937 33.8415C142.848 36.8195 140.602 37.9024 137.996 37.9024ZM146.531 41.1512H144.105V29.8707L146.531 29.6V41.1512ZM154.168 39.1659C156.234 39.1659 158.21 38.7146 158.66 38.6244L159.109 40.7C158.57 40.8805 156.593 41.422 154.257 41.422C150.035 41.422 147.879 39.8878 147.879 37C147.879 34.4732 149.676 32.4878 153.539 32.4878C157.222 32.4878 160.187 34.2927 159.019 37.8122H150.484C150.843 38.7146 151.922 39.1659 154.168 39.1659ZM172.944 41.1512C172.136 41.3317 171.507 41.422 170.968 41.422C169.081 41.422 168.991 40.4293 168.902 39.978C168.093 40.8805 166.206 41.422 164.769 41.422C162.433 41.422 160.816 40.339 160.816 38.3537C160.816 36.278 162.882 35.7366 164.949 35.7366C166.386 35.7366 167.913 36.0073 168.722 36.278C168.632 35.4659 167.823 34.7439 165.667 34.7439C163.87 34.7439 162.523 35.1049 162.074 35.1951L161.265 33.1195C161.714 32.939 163.511 32.4878 165.577 32.4878C169.62 32.4878 171.058 34.2024 171.058 36.5488V38.6244C171.058 38.8951 171.148 39.1659 171.866 39.1659C172.136 39.1659 172.405 39.1659 172.855 39.0756V41.1512H172.944ZM179.323 41.422C177.437 41.422 175.999 41.2415 173.843 40.7L174.292 38.4439C176.538 38.9854 177.886 39.1659 179.593 39.1659C180.491 39.1659 182.917 39.1659 182.917 38.4439C182.917 37.9024 181.39 37.9927 179.683 37.9927C177.167 37.9024 174.112 37.7219 174.112 35.2854C174.112 32.578 177.616 32.3976 179.503 32.3976C181.03 32.3976 182.827 32.578 184.624 32.8488L184.264 35.1049C182.198 34.7439 180.94 34.6537 179.054 34.6537C177.526 34.6537 176.538 34.7439 176.538 35.2854C176.538 35.8268 177.976 35.8268 179.593 35.8268C182.108 35.8268 185.343 36.0073 185.343 38.3537C185.432 41.3317 181.03 41.422 179.323 41.422ZM192.71 39.1659C194.776 39.1659 196.752 38.7146 197.202 38.6244L197.651 40.7C197.112 40.8805 195.135 41.422 192.799 41.422C188.577 41.422 186.421 39.8878 186.421 37C186.421 34.4732 188.217 32.4878 192.081 32.4878C195.764 32.4878 198.729 34.2927 197.561 37.8122H189.026C189.385 38.7146 190.463 39.1659 192.71 39.1659ZM217.775 41.1512L216.068 36.278L215.08 33.1195L214.092 36.278L212.385 41.1512H209.779L205.108 29.8707H207.713L209.69 34.7439L210.947 38.1732L212.025 34.7439L213.732 29.8707H216.248L217.955 34.7439L219.033 38.1732L220.291 34.7439L222.267 29.8707H224.873L220.201 41.1512H217.775ZM236.822 41.1512C236.013 41.3317 235.384 41.422 234.845 41.422C232.958 41.422 232.869 40.4293 232.779 39.978C231.97 40.8805 230.083 41.422 228.646 41.422C226.31 41.422 224.693 40.339 224.693 38.3537C224.693 36.278 226.759 35.7366 228.826 35.7366C230.263 35.7366 231.79 36.0073 232.599 36.278C232.509 35.4659 231.701 34.7439 229.544 34.7439C227.748 34.7439 226.4 35.1049 225.951 35.1951L225.142 33.1195C225.591 32.939 227.388 32.4878 229.455 32.4878C233.497 32.4878 234.935 34.2024 234.935 36.5488V38.6244C234.935 38.8951 235.025 39.1659 235.743 39.1659C236.013 39.1659 236.283 39.1659 236.732 39.0756V41.1512H236.822ZM240.864 41.1512H238.439V32.7585L240.864 32.4878V41.1512ZM240.864 31.6756H238.439V29.7805H240.864V31.6756ZM248.142 34.7439H245.716V38.4439C245.716 39.2561 246.075 39.4366 246.794 39.4366C247.153 39.4366 247.603 39.3463 248.142 39.3463V41.2415C247.333 41.422 246.704 41.5122 246.075 41.5122C244.278 41.5122 243.29 40.7 243.29 38.5341V34.8341H242.122V32.8488H243.29V30.7732L245.716 30.5024V32.8488H248.142V34.7439V34.7439ZM252.184 41.1512H250.028V38.8049H252.184V41.1512Z" fill="white" fill-opacity="0.5"/>
</svg>
