<svg xmlns="http://www.w3.org/2000/svg" viewBox="0 0 829.33 141.33"><defs><style>.cls-1{fill:#fff;}.cls-2{fill:#fff98f;}</style></defs><g id="레이어_2" data-name="레이어 2"><g id="레이어_1-2" data-name="레이어 1"><path class="cls-1" d="M0,78.22V13.11H130.21V97.56H88.75v7.53h41.46v34.09H0V105.09H41.46V97.56H19.35q-9.21,0-14.28-5.06T0,78.22ZM46.83,49.66l-1.69,4.6a88.48,88.48,0,0,0,9.68,2.38q5.22,1,10.59,1.54c3.58.36,7.12.64,10.6.84s6.65.31,9.52.31V54.72a159.21,159.21,0,0,1-19.35-1.3A132.3,132.3,0,0,1,46.83,49.66Z"/><path class="cls-1" d="M136.35,61.33V13.11H266.56V44.9h-84v4h84V80.67H155.7q-9.21,0-14.28-5.06T136.35,61.33Zm88.76,77.85h-47.3V117.37H136.35V84.82H266.56v32.55H225.11Z"/><path class="cls-1" d="M272.71,104.93V13.11h76.93V50.58a62,62,0,0,1-7.84,1.53c-3,.41-6,.75-9.21,1s-6.37.44-9.6.54-6.21.15-9,.15V98.33q3.54,0,9.06-.15t11.52-.85a103.33,103.33,0,0,0,11.59-2,33.39,33.39,0,0,0,9.29-3.46V13.11h41.31V53.19h11.67V89.43H396.78v49.75H355.47v-7.37a59.94,59.94,0,0,1-7.52,2.68q-4.45,1.31-9.22,2.31t-9.36,1.61a61.47,61.47,0,0,1-8,.61H308.64q-10.9,0-17.89-2.07a23.87,23.87,0,0,1-11-6.37,23.45,23.45,0,0,1-5.53-10.67A64.73,64.73,0,0,1,272.71,104.93Z"/><path class="cls-1" d="M460,76.07a147.82,147.82,0,0,1-21.35-1.31,40.34,40.34,0,0,1-14.2-4.45,18.9,18.9,0,0,1-7.91-8.37,30.58,30.58,0,0,1-2.45-13V40.75q7.37.31,13.59.08T439.39,40a94.64,94.64,0,0,0,10.44-1.76,101.83,101.83,0,0,0,9.9-2.84V30.77q-4.92,1.38-9.9,2.46T439.39,35q-5.46.69-11.67,1.08a132.56,132.56,0,0,1-13.59.07v-23H544.34V41.36q-5.22,1.23-10.21,2.23t-10.29,1.69q-5.3.69-11.13,1.07t-12.59.39v4.6q6.75,0,12.59-.38t11.13-1.07c3.53-.46,7-1,10.29-1.69s6.73-1.41,10.21-2.23V71.46a273.51,273.51,0,0,1-37,3.76Q486.6,76.08,460,76.07Zm-45.91,28.4V79H544.34v25.49Zm.76,3.23h44.23c-.52,2.45.69,4.4,3.61,5.83s8.11,2.21,15.58,2.31q9.21.15,17.58-.16t16.36-1.07q8-.77,15.89-2.07t16.2-3.46v25.18q-7.68,2-15.2,3.38t-15.59,2.15q-8.05.77-16.74,1.15t-18.5.39a216.46,216.46,0,0,1-31.48-1.92q-12.75-1.93-20.19-6T416.43,123Q413.67,116.61,414.89,107.7Z"/><path class="cls-2" d="M634.32,41.21H555.55v-25h10.28a11.57,11.57,0,0,0,2,3.92,20.62,20.62,0,0,0,3.76,3.84,22.93,22.93,0,0,0,4.76,2.91,13.88,13.88,0,0,0,4.84,1.31l2-3.07A19.23,19.23,0,0,1,572.9,20.4q-3.84-3.6-3.84-7.6h0c0-7.07,7.74-12.8,14.81-12.8h20.6a16.17,16.17,0,0,1,16.18,16.18h13.67ZM555.55,69.16a26.32,26.32,0,0,1,1.92-10.29A18.38,18.38,0,0,1,564,51a35,35,0,0,1,12.29-5.14,100.45,100.45,0,0,1,38.38,0A35.78,35.78,0,0,1,627,51a18.26,18.26,0,0,1,6.61,7.91,26.5,26.5,0,0,1,1.92,10.29,25.47,25.47,0,0,1-1.92,10A18.29,18.29,0,0,1,627,87a35.78,35.78,0,0,1-12.36,5.15,101,101,0,0,1-38.38,0A36.13,36.13,0,0,1,564,87.12a17.9,17.9,0,0,1-6.52-7.83A25.9,25.9,0,0,1,555.55,69.16ZM558,97.1h44.53c0,4,2,7.37,6,10.14s10,4.3,18,4.6a219.56,219.56,0,0,0,28.1-.84,90.61,90.61,0,0,0,25-5.91v29.33q-6.76,1.83-13.06,3.14t-13,2.15q-6.68.85-14.13,1.23t-16.66.39a217.17,217.17,0,0,1-30.09-1.85q-13.07-1.84-21.42-6.75a27.12,27.12,0,0,1-11.83-13.52Q556,110.62,558,97.1Zm22.27-34.85-2.77,4.14a70.81,70.81,0,0,0,16.59,5.22,94.18,94.18,0,0,0,17.66,1.69V68.7a73.08,73.08,0,0,1-16.66-1.85A102.84,102.84,0,0,1,580.27,62.25Zm58,44.83v-94h41.31V38.29h11.67V74.53H679.62V100a67.87,67.87,0,0,1-9.29,3.07q-5.31,1.38-11,2.38t-11.14,1.46A64,64,0,0,1,638.31,107.08Z"/><path class="cls-1" d="M697.58,63.48c2.46,0,5.27,0,8.45-.08s6.42-.2,9.75-.46,6.52-.59,9.59-1a42.79,42.79,0,0,0,7.84-1.69V55.64a50,50,0,0,1-7.68,1.54q-4.6.62-9.68,1c-3.37.25-6.7.46-10,.61s-6,.23-8.29.23V41.36q3.23,0,8.06-.15t9.91-.46q5.06-.3,9.75-.77a59.53,59.53,0,0,0,7.91-1.23v-4.6q-3.23.62-7.91,1.07c-3.13.31-6.35.59-9.68.85s-6.6.43-9.82.53-6,.16-8.22.16V13.11h80v16h5.84v-16h44.37V84.05H783.42V65.32H765.91q-8.74,10.59-25.26,15.89t-43.07,4.22Zm0,43.76a182.24,182.24,0,0,0,18.5-1.85,50.32,50.32,0,0,0,12.29-3.3,16.86,16.86,0,0,0,6.83-4.91,11,11,0,0,0,2.15-6.83V87.43h51.9v2.92a11,11,0,0,0,2.15,6.83,16.84,16.84,0,0,0,6.91,4.91,51.73,51.73,0,0,0,12.44,3.3,185.93,185.93,0,0,0,18.58,1.85V139q-14.9,0-25.87-.69a134.85,134.85,0,0,1-19.89-2.61,83.51,83.51,0,0,1-16.74-5.45,127.7,127.7,0,0,1-16.43-9.06L745,124a36.58,36.58,0,0,0,6,3.69c2.25,1.13,4.65,2.25,7.21,3.38q-6.45,1.85-13,3.38T731.44,137q-7.29,1.07-15.59,1.53t-18.27.46Z"/></g></g></svg>