<svg width="172" height="28" viewBox="0 0 172 28" fill="none" xmlns="http://www.w3.org/2000/svg">
<path d="M0 15.2998V2.5791H26.9459V19.0907H18.3778V20.5562H26.9666V27.2194H0V20.5562H8.58874V19.0907H3.99428C2.73184 19.0907 1.73844 18.7585 1.03479 18.0941C0.351828 17.4297 0 16.5113 0 15.2998ZM9.68562 9.73086L9.33379 10.6297C9.95466 10.8056 10.6169 10.9619 11.3413 11.0987C12.0656 11.2355 12.79 11.3332 13.535 11.3918C14.2801 11.4504 15.0044 11.509 15.7288 11.5481C16.4531 11.5872 17.1154 11.6067 17.6949 11.6067V10.7079C16.4945 10.7079 15.1493 10.6297 13.7006 10.4538C12.2312 10.278 10.9067 10.0435 9.68562 9.73086Z" fill="white"/>
<path d="M28.2289 11.9975V2.5791H55.1748V8.79292H37.7904V9.57453H55.1748V15.7884H32.2232C30.9608 15.7884 29.9674 15.4562 29.2637 14.7918C28.5601 14.1274 28.2289 13.209 28.2289 11.9975ZM46.5861 27.2194H36.797V22.9596H28.2083V16.5895H55.1541V22.9596H46.5654V27.2194H46.5861Z" fill="white"/>
<path d="M56.4373 20.5171V2.5791H72.3523V9.90672C71.8763 10.024 71.3382 10.1217 70.738 10.1998C70.1172 10.278 69.4963 10.3366 68.834 10.3952C68.1718 10.4538 67.5095 10.4734 66.8472 10.4929C66.185 10.5125 65.5641 10.532 64.9846 10.532V19.2274C65.4813 19.2274 66.1022 19.2079 66.8679 19.1884C67.6337 19.1688 68.4201 19.1102 69.2479 19.032C70.0758 18.9343 70.8829 18.8171 71.6486 18.6412C72.4144 18.4654 73.056 18.2504 73.5733 17.9573V2.5791H82.1207V10.4148H84.5421V17.4884H82.1207V27.2194H73.5733V25.7735C73.1594 25.9493 72.6213 26.1252 72.0212 26.301C71.4003 26.4769 70.7794 26.6137 70.1172 26.7505C69.4549 26.8872 68.8133 26.9849 68.1718 27.0631C67.5302 27.1413 66.9921 27.1804 66.5161 27.1804H63.8877C62.3769 27.1804 61.1559 27.0436 60.1832 26.77C59.2105 26.4964 58.4654 26.0861 57.9067 25.5194C57.3479 24.9528 56.9753 24.2688 56.7684 23.4286C56.5407 22.6275 56.4373 21.6504 56.4373 20.5171Z" fill="white"/>
<path d="M95.2005 14.8895C93.4621 14.8895 91.9927 14.8113 90.7923 14.6355C89.592 14.4596 88.5986 14.1665 87.8535 13.7561C87.1085 13.3458 86.5497 12.7987 86.2186 12.1148C85.8874 11.4308 85.7012 10.5906 85.7012 9.55498V7.97221C86.7153 8.01129 87.6466 8.01129 88.5158 7.99175C89.3643 7.95267 90.1715 7.91359 90.9372 7.83543C91.6822 7.75727 92.4066 7.64002 93.0896 7.4837C93.7725 7.32738 94.4555 7.15152 95.1384 6.93657V6.03772C94.4555 6.21358 93.7725 6.3699 93.0896 6.52623C92.4066 6.66301 91.6822 6.78025 90.9372 6.87795C90.1922 6.97565 89.385 7.03428 88.5158 7.0929C87.6673 7.15152 86.7153 7.15152 85.7012 7.11244V2.61816H112.647V8.14807C111.923 8.3044 111.219 8.46072 110.536 8.57796C109.853 8.71474 109.129 8.81244 108.404 8.91014C107.68 9.00785 106.914 9.06647 106.107 9.12509C105.3 9.18371 104.431 9.20325 103.5 9.20325V10.1021C104.431 10.1021 105.3 10.0826 106.107 10.0239C106.914 9.96532 107.68 9.9067 108.404 9.809C109.129 9.7113 109.853 9.6136 110.536 9.47681C111.219 9.34003 111.923 9.20325 112.647 9.04693V14.0297C110.391 14.401 107.846 14.655 104.99 14.7722C102.134 14.8309 98.8637 14.8895 95.2005 14.8895ZM85.7012 20.4389V15.4561H112.647V20.4389H85.7012ZM85.8667 21.0642H95.0143C94.9108 21.5527 95.1591 21.924 95.7593 22.1976C96.3595 22.4711 97.4357 22.6274 98.9879 22.647C100.25 22.6665 101.471 22.6665 102.63 22.6079C103.789 22.5688 104.907 22.4907 106.024 22.393C107.121 22.2953 108.218 22.1585 109.315 21.9826C110.412 21.8068 111.529 21.5918 112.668 21.2987V26.2229C111.612 26.4769 110.557 26.7114 109.522 26.8872C108.487 27.0631 107.411 27.1999 106.293 27.3171C105.176 27.4148 104.017 27.493 102.837 27.5516C101.637 27.6102 100.354 27.6298 99.0085 27.6298C96.4216 27.6298 94.2485 27.5125 92.4894 27.2585C90.7302 27.0045 89.3436 26.6137 88.3088 26.0861C87.2741 25.5585 86.5704 24.8746 86.1979 24.0539C85.8253 23.2332 85.7012 22.2171 85.8667 21.0642Z" fill="white"/>
<path d="M131.273 8.07015H114.965V3.18507H117.097C117.159 3.41955 117.303 3.67358 117.51 3.94714C117.717 4.22071 117.986 4.47473 118.297 4.68967C118.607 4.92416 118.938 5.11956 119.29 5.25634C119.642 5.39313 119.973 5.49083 120.284 5.51037L120.698 4.90462C119.808 4.76784 119.104 4.45519 118.566 3.98622C118.028 3.51726 117.779 3.02875 117.779 2.50116C117.779 1.1138 119.373 0 120.842 0H125.106C126.948 0 128.458 1.4069 128.458 3.16553H131.294V8.07015H131.273ZM114.965 13.5414C114.965 12.7989 115.089 12.1345 115.358 11.5288C115.627 10.923 116.082 10.415 116.703 9.9851C117.345 9.55521 118.193 9.22303 119.249 8.98854C120.304 8.75406 121.629 8.63682 123.222 8.63682C124.816 8.63682 126.141 8.75406 127.196 8.98854C128.252 9.22303 129.1 9.55521 129.762 9.9851C130.404 10.415 130.859 10.923 131.128 11.5288C131.397 12.1345 131.521 12.7989 131.521 13.5414C131.521 14.2644 131.397 14.9093 131.128 15.515C130.859 16.1012 130.404 16.6093 129.762 17.0392C129.121 17.469 128.272 17.8012 127.196 18.0357C126.141 18.2702 124.816 18.3874 123.222 18.3874C121.629 18.3874 120.304 18.2702 119.249 18.0357C118.193 17.8012 117.345 17.469 116.703 17.0392C116.062 16.6288 115.627 16.1012 115.358 15.515C115.11 14.9093 114.965 14.2449 114.965 13.5414ZM115.482 18.9932H124.692C124.692 19.7748 125.106 20.4392 125.934 20.9668C126.761 21.5139 128.003 21.807 129.659 21.8656C131.666 21.9242 133.612 21.8656 135.474 21.7093C137.337 21.5334 139.075 21.1622 140.648 20.5564V26.2817C139.717 26.5162 138.806 26.7311 137.937 26.8875C137.068 27.0633 136.178 27.2001 135.247 27.2978C134.315 27.3955 133.343 27.4932 132.329 27.5323C131.294 27.5909 130.156 27.6105 128.872 27.6105C126.513 27.6105 124.443 27.4932 122.643 27.2587C120.842 27.0243 119.373 26.5748 118.214 25.93C117.055 25.2852 116.248 24.4058 115.772 23.2921C115.317 22.1978 115.213 20.7518 115.482 18.9932ZM120.097 12.1736L119.518 12.9748C120.573 13.4437 121.712 13.7759 122.953 13.9909C124.174 14.2058 125.396 14.323 126.617 14.323V13.4242C125.416 13.4242 124.257 13.307 123.16 13.0725C122.063 12.838 121.049 12.5449 120.097 12.1736ZM132.101 20.9472V2.57932H140.648V7.50348H143.07V14.5771H140.648V19.5599C140.09 19.7748 139.448 19.9702 138.724 20.1656C137.999 20.3415 137.233 20.4978 136.447 20.6346C135.661 20.7714 134.895 20.8691 134.15 20.9277C133.405 20.9668 132.722 20.9863 132.101 20.9472Z" fill="#FFF98F"/>
<path d="M144.374 12.4274C144.891 12.4274 145.471 12.4274 146.112 12.4079C146.774 12.3883 147.437 12.3688 148.14 12.3102C148.823 12.2516 149.486 12.1929 150.127 12.1148C150.769 12.0366 151.307 11.9194 151.741 11.7826V10.8837C151.328 11.001 150.789 11.0987 150.148 11.1768C149.506 11.255 148.844 11.3136 148.14 11.3722C147.437 11.4309 146.754 11.4699 146.071 11.4895C145.388 11.5286 144.829 11.5286 144.353 11.5286V8.10901C144.788 8.10901 145.346 8.08947 146.029 8.06993C146.692 8.05039 147.375 8.01131 148.078 7.97223C148.782 7.93315 149.444 7.87453 150.106 7.81591C150.748 7.75728 151.307 7.67912 151.741 7.58142V6.68257C151.307 6.76073 150.748 6.83889 150.106 6.89751C149.465 6.95613 148.803 7.01475 148.099 7.05383C147.416 7.11245 146.733 7.13199 146.071 7.15153C145.409 7.17107 144.829 7.19062 144.374 7.19062V2.5791H160.93V5.70555H162.131V2.5791H171.32V16.4332H162.131V12.7791H158.509C157.309 14.1665 155.549 15.2021 153.273 15.8861C150.996 16.57 148.016 16.8435 144.353 16.7067V12.4274H144.374ZM144.374 20.9665C145.885 20.8884 147.147 20.7711 148.202 20.6148C149.258 20.4585 150.106 20.2435 150.748 19.97C151.39 19.6964 151.866 19.3838 152.155 19.0125C152.445 18.6412 152.611 18.1918 152.611 17.6838V17.1171H163.352V17.6838C163.352 18.2114 163.497 18.6412 163.786 19.0125C164.076 19.3838 164.552 19.6964 165.214 19.97C165.877 20.2435 166.725 20.4585 167.781 20.6148C168.836 20.7711 170.119 20.8884 171.63 20.9665V27.1804C169.581 27.1804 167.781 27.1413 166.27 27.0436C164.759 26.9459 163.393 26.7895 162.151 26.5355C160.93 26.2815 159.771 25.9298 158.695 25.4608C157.619 24.9918 156.481 24.4056 155.301 23.6826L154.184 24.2493C154.535 24.5033 154.949 24.7574 155.425 24.9723C155.881 25.1872 156.398 25.4022 156.915 25.6367C156.025 25.8712 155.136 26.1056 154.225 26.301C153.314 26.4964 152.362 26.6723 151.369 26.8091C150.355 26.9459 149.279 27.0436 148.14 27.1022C147.002 27.1608 145.74 27.1999 144.353 27.1999V20.9665H144.374Z" fill="white"/>
</svg>
